<svg xmlns="http://www.w3.org/2000/svg" viewBox="4 47.233 128.021 122.572"><g><path d="M104.239,138.807c-16.786-6.118-22.152-11.279-22.152-22.329c0-6.634,5.126-4.467,7.376-16.614		c0.934-5.04,5.461-0.082,6.329-11.586c0-4.585-2.472-5.724-2.472-5.724s1.255-6.785,1.748-12.007 c0.608-6.505-3.76-23.314-27.059-23.314c-23.299,0-27.669,16.809-27.058,23.314c0.492,5.222,1.747,12.007,1.747,12.007		s-2.471,1.139-2.471,5.724c0.864,11.504,5.392,6.546,6.326,11.586c2.252,12.147,7.376,9.98,7.376,16.614 c0,11.05-5.361,16.211-22.149,22.329C14.941,144.943,4,151.199,4,155.467c0,4.266,0,14.338,0,14.338h64.011h64.01		c0,0,0-10.072,0-14.338C132.021,151.199,121.081,144.943,104.239,138.807z"/></g></svg>